<svg xmlns="http://www.w3.org/2000/svg" viewBox="0 0 256 256" role="img" aria-label="llmao">
  <rect width="256" height="256" rx="56" fill="#6D4AFF"/>
  <!-- speech bubble -->
  <path d="M64 58h128a26 26 0 0 1 26 26v70a26 26 0 0 1-26 26h-62l-38 30v-30H64a26 26 0 0 1-26-26V84a26 26 0 0 1 26-26z" fill="#FFFFFF"/>
  <!-- laughing eyes: ^ ^ -->
  <path d="M84 116l16-18 16 18M140 116l16-18 16 18" fill="none" stroke="#1E1433" stroke-width="11" stroke-linecap="round" stroke-linejoin="round"/>
  <!-- open laughing mouth -->
  <path d="M92 132h72a36 36 0 0 1-72 0z" fill="#1E1433"/>
  <!-- tear of joy -->
  <path d="M194 92c7 10 11 17 11 23a11 11 0 0 1-22 0c0-6 4-13 11-23z" fill="#FFC53D"/>
</svg>
